<mxfile host="Electron" agent="Mozilla/5.0 (Windows NT 10.0; Win64; x64) AppleWebKit/537.36 (KHTML, like Gecko) draw.io/24.7.17 Chrome/128.0.6613.36 Electron/32.0.1 Safari/537.36" version="24.7.17">
  <diagram name="Design1" id="90a13364-a465-7bf4-72fc-28e22215d7a0">
    <mxGraphModel dx="955" dy="572" grid="1" gridSize="10" guides="1" tooltips="1" connect="1" arrows="1" fold="1" page="1" pageScale="1.5" pageWidth="1169" pageHeight="826" background="none" math="0" shadow="0">
      <root>
        <mxCell id="0" style=";html=1;" />
        <mxCell id="1" style=";html=1;" parent="0" />
        <mxCell id="iSu29I9teGT1uEhTYteV-264" style="edgeStyle=orthogonalEdgeStyle;shape=connector;rounded=0;orthogonalLoop=1;jettySize=auto;html=1;labelBackgroundColor=none;align=center;verticalAlign=middle;fontFamily=Helvetica;fontSize=12;fontColor=default;endArrow=classic;startSize=8;endSize=8;" parent="1" source="iSu29I9teGT1uEhTYteV-11" target="iSu29I9teGT1uEhTYteV-252" edge="1">
          <mxGeometry relative="1" as="geometry" />
        </mxCell>
        <mxCell id="iSu29I9teGT1uEhTYteV-265" value="Deditcated I/O" style="edgeLabel;html=1;align=center;verticalAlign=middle;resizable=0;points=[];fontSize=12;fontFamily=Helvetica;labelBackgroundColor=none;" parent="iSu29I9teGT1uEhTYteV-264" vertex="1" connectable="0">
          <mxGeometry x="-0.055" y="-2" relative="1" as="geometry">
            <mxPoint x="-102" y="18" as="offset" />
          </mxGeometry>
        </mxCell>
        <mxCell id="iSu29I9teGT1uEhTYteV-302" style="edgeStyle=orthogonalEdgeStyle;shape=connector;rounded=0;orthogonalLoop=1;jettySize=auto;html=1;labelBackgroundColor=default;strokeColor=default;align=center;verticalAlign=middle;fontFamily=Helvetica;fontSize=12;fontColor=default;endArrow=classic;startSize=8;endSize=8;" parent="1" source="iSu29I9teGT1uEhTYteV-11" target="iSu29I9teGT1uEhTYteV-256" edge="1">
          <mxGeometry relative="1" as="geometry">
            <Array as="points">
              <mxPoint x="1080" y="115" />
            </Array>
          </mxGeometry>
        </mxCell>
        <mxCell id="iSu29I9teGT1uEhTYteV-306" value="PWM" style="edgeLabel;html=1;align=center;verticalAlign=middle;resizable=0;points=[];fontSize=12;fontFamily=Helvetica;fontColor=default;" parent="iSu29I9teGT1uEhTYteV-302" vertex="1" connectable="0">
          <mxGeometry x="-0.4803" y="1" relative="1" as="geometry">
            <mxPoint x="21" y="-6" as="offset" />
          </mxGeometry>
        </mxCell>
        <mxCell id="vanw4_a58nJsZAa9QmJa-2" style="edgeStyle=orthogonalEdgeStyle;rounded=0;orthogonalLoop=1;jettySize=auto;html=1;" edge="1" parent="1" source="iSu29I9teGT1uEhTYteV-11" target="vanw4_a58nJsZAa9QmJa-1">
          <mxGeometry relative="1" as="geometry">
            <Array as="points">
              <mxPoint x="1080" y="190" />
            </Array>
          </mxGeometry>
        </mxCell>
        <mxCell id="vanw4_a58nJsZAa9QmJa-14" style="edgeStyle=orthogonalEdgeStyle;rounded=0;orthogonalLoop=1;jettySize=auto;html=1;" edge="1" parent="1" source="iSu29I9teGT1uEhTYteV-11" target="vanw4_a58nJsZAa9QmJa-13">
          <mxGeometry relative="1" as="geometry">
            <Array as="points">
              <mxPoint x="955" y="310" />
              <mxPoint x="125" y="310" />
            </Array>
          </mxGeometry>
        </mxCell>
        <mxCell id="iSu29I9teGT1uEhTYteV-11" value="uController" style="rounded=0;whiteSpace=wrap;html=1;fontSize=16;labelBackgroundColor=none;" parent="1" vertex="1">
          <mxGeometry x="790" y="360" width="330" height="280" as="geometry" />
        </mxCell>
        <mxCell id="iSu29I9teGT1uEhTYteV-19" value="WiFi" style="rounded=0;whiteSpace=wrap;html=1;fontSize=16;labelBackgroundColor=none;" parent="1" vertex="1">
          <mxGeometry x="940" y="950" width="120" height="60" as="geometry" />
        </mxCell>
        <mxCell id="iSu29I9teGT1uEhTYteV-40" value="Storage" style="swimlane;whiteSpace=wrap;html=1;fontSize=16;startSize=23;labelBackgroundColor=none;" parent="1" vertex="1">
          <mxGeometry x="30" y="20" width="1030" height="210" as="geometry">
            <mxRectangle x="497" y="40" width="180" height="30" as="alternateBounds" />
          </mxGeometry>
        </mxCell>
        <mxCell id="vanw4_a58nJsZAa9QmJa-7" value="Drives" style="swimlane;whiteSpace=wrap;html=1;fontSize=16;startSize=23;labelBackgroundColor=none;" vertex="1" parent="iSu29I9teGT1uEhTYteV-40">
          <mxGeometry x="185" y="40" width="830" height="150" as="geometry">
            <mxRectangle x="497" y="40" width="180" height="30" as="alternateBounds" />
          </mxGeometry>
        </mxCell>
        <mxCell id="vanw4_a58nJsZAa9QmJa-8" value="SATA3" style="rounded=0;whiteSpace=wrap;html=1;fontSize=16;labelBackgroundColor=none;" vertex="1" parent="vanw4_a58nJsZAa9QmJa-7">
          <mxGeometry x="511.5" y="60" width="120" height="60" as="geometry" />
        </mxCell>
        <mxCell id="vanw4_a58nJsZAa9QmJa-9" value="SATA2" style="rounded=0;whiteSpace=wrap;html=1;fontSize=16;labelBackgroundColor=none;" vertex="1" parent="vanw4_a58nJsZAa9QmJa-7">
          <mxGeometry x="351.5" y="60" width="120" height="60" as="geometry" />
        </mxCell>
        <mxCell id="vanw4_a58nJsZAa9QmJa-10" value="SATA1" style="rounded=0;whiteSpace=wrap;html=1;fontSize=16;labelBackgroundColor=none;" vertex="1" parent="vanw4_a58nJsZAa9QmJa-7">
          <mxGeometry x="191.5" y="60" width="120" height="60" as="geometry" />
        </mxCell>
        <mxCell id="vanw4_a58nJsZAa9QmJa-11" value="SATA4" style="rounded=0;whiteSpace=wrap;html=1;fontSize=16;labelBackgroundColor=none;" vertex="1" parent="vanw4_a58nJsZAa9QmJa-7">
          <mxGeometry x="671.5" y="60" width="120" height="60" as="geometry" />
        </mxCell>
        <mxCell id="vanw4_a58nJsZAa9QmJa-12" value="SATA0" style="rounded=0;whiteSpace=wrap;html=1;fontSize=16;labelBackgroundColor=none;" vertex="1" parent="vanw4_a58nJsZAa9QmJa-7">
          <mxGeometry x="31.5" y="60" width="120" height="60" as="geometry" />
        </mxCell>
        <mxCell id="vanw4_a58nJsZAa9QmJa-13" value="Power" style="rounded=0;whiteSpace=wrap;html=1;fontSize=16;labelBackgroundColor=none;" vertex="1" parent="iSu29I9teGT1uEhTYteV-40">
          <mxGeometry x="35" y="100" width="120" height="60" as="geometry" />
        </mxCell>
        <mxCell id="iSu29I9teGT1uEhTYteV-251" value="Back Ports" style="swimlane;whiteSpace=wrap;html=1;fontFamily=Helvetica;fontSize=12;labelBackgroundColor=none;" parent="1" vertex="1">
          <mxGeometry x="180" y="370" width="230" height="400" as="geometry" />
        </mxCell>
        <mxCell id="iSu29I9teGT1uEhTYteV-18" value="Ethernet" style="rounded=0;whiteSpace=wrap;html=1;fontSize=16;labelBackgroundColor=none;" parent="iSu29I9teGT1uEhTYteV-251" vertex="1">
          <mxGeometry x="55" y="150" width="120" height="60" as="geometry" />
        </mxCell>
        <mxCell id="iSu29I9teGT1uEhTYteV-20" value="USB C" style="rounded=0;whiteSpace=wrap;html=1;fontSize=16;labelBackgroundColor=none;" parent="iSu29I9teGT1uEhTYteV-251" vertex="1">
          <mxGeometry x="55" y="50" width="120" height="60" as="geometry" />
        </mxCell>
        <mxCell id="vanw4_a58nJsZAa9QmJa-16" value="AC Adapter?" style="rounded=0;whiteSpace=wrap;html=1;fontSize=16;labelBackgroundColor=none;" vertex="1" parent="iSu29I9teGT1uEhTYteV-251">
          <mxGeometry x="55" y="240" width="120" height="60" as="geometry" />
        </mxCell>
        <mxCell id="iSu29I9teGT1uEhTYteV-252" value="Front Facing I/O" style="swimlane;whiteSpace=wrap;html=1;fontFamily=Helvetica;fontSize=12;labelBackgroundColor=none;" parent="1" vertex="1">
          <mxGeometry x="1480" y="30" width="300" height="780" as="geometry">
            <mxRectangle x="1470" y="30" width="130" height="30" as="alternateBounds" />
          </mxGeometry>
        </mxCell>
        <mxCell id="iSu29I9teGT1uEhTYteV-253" value="Reset Button" style="rounded=0;whiteSpace=wrap;html=1;fontSize=16;labelBackgroundColor=none;" parent="iSu29I9teGT1uEhTYteV-252" vertex="1">
          <mxGeometry x="164" y="50" width="120" height="60" as="geometry" />
        </mxCell>
        <mxCell id="iSu29I9teGT1uEhTYteV-254" value="Power Button" style="rounded=0;whiteSpace=wrap;html=1;fontSize=16;labelBackgroundColor=none;" parent="iSu29I9teGT1uEhTYteV-252" vertex="1">
          <mxGeometry x="20" y="50" width="120" height="60" as="geometry" />
        </mxCell>
        <mxCell id="iSu29I9teGT1uEhTYteV-266" value="LEDs" style="swimlane;whiteSpace=wrap;html=1;fontSize=16;" parent="iSu29I9teGT1uEhTYteV-252" vertex="1">
          <mxGeometry x="50" y="140" width="200" height="520" as="geometry">
            <mxRectangle x="40" y="290" width="180" height="30" as="alternateBounds" />
          </mxGeometry>
        </mxCell>
        <mxCell id="iSu29I9teGT1uEhTYteV-267" value="Status" style="whiteSpace=wrap;html=1;fontSize=16;" parent="iSu29I9teGT1uEhTYteV-266" vertex="1">
          <mxGeometry x="40" y="40" width="120" height="60" as="geometry" />
        </mxCell>
        <mxCell id="iSu29I9teGT1uEhTYteV-268" value="Drive 1" style="whiteSpace=wrap;html=1;fontSize=16;" parent="iSu29I9teGT1uEhTYteV-266" vertex="1">
          <mxGeometry x="40" y="200" width="120" height="60" as="geometry" />
        </mxCell>
        <mxCell id="iSu29I9teGT1uEhTYteV-269" value="Drive 2" style="whiteSpace=wrap;html=1;fontSize=16;" parent="iSu29I9teGT1uEhTYteV-266" vertex="1">
          <mxGeometry x="40" y="280" width="120" height="60" as="geometry" />
        </mxCell>
        <mxCell id="iSu29I9teGT1uEhTYteV-270" value="Drive 3" style="whiteSpace=wrap;html=1;fontSize=16;" parent="iSu29I9teGT1uEhTYteV-266" vertex="1">
          <mxGeometry x="40" y="360" width="120" height="60" as="geometry" />
        </mxCell>
        <mxCell id="iSu29I9teGT1uEhTYteV-272" value="Drive 4" style="whiteSpace=wrap;html=1;fontSize=16;" parent="iSu29I9teGT1uEhTYteV-266" vertex="1">
          <mxGeometry x="40" y="440" width="120" height="60" as="geometry" />
        </mxCell>
        <mxCell id="iSu29I9teGT1uEhTYteV-289" value="Drive 0" style="whiteSpace=wrap;html=1;fontSize=16;" parent="iSu29I9teGT1uEhTYteV-266" vertex="1">
          <mxGeometry x="40" y="120" width="120" height="60" as="geometry" />
        </mxCell>
        <mxCell id="iSu29I9teGT1uEhTYteV-299" value="USB 3.0 or C" style="whiteSpace=wrap;html=1;fontSize=16;" parent="iSu29I9teGT1uEhTYteV-252" vertex="1">
          <mxGeometry x="90" y="690" width="120" height="60" as="geometry" />
        </mxCell>
        <mxCell id="iSu29I9teGT1uEhTYteV-256" value="Fan Controller" style="rounded=0;whiteSpace=wrap;html=1;fontFamily=Helvetica;fontSize=12;labelBackgroundColor=none;" parent="1" vertex="1">
          <mxGeometry x="1120" y="85" width="120" height="60" as="geometry" />
        </mxCell>
        <mxCell id="iSu29I9teGT1uEhTYteV-257" value="SPI Flash" style="rounded=0;whiteSpace=wrap;html=1;fontFamily=Helvetica;fontSize=12;labelBackgroundColor=none;" parent="1" vertex="1">
          <mxGeometry x="650" y="730" width="120" height="60" as="geometry" />
        </mxCell>
        <mxCell id="iSu29I9teGT1uEhTYteV-258" value="eMMC (Supports Boot)" style="rounded=0;whiteSpace=wrap;html=1;fontFamily=Helvetica;fontSize=12;labelBackgroundColor=none;" parent="1" vertex="1">
          <mxGeometry x="650" y="930" width="120" height="60" as="geometry" />
        </mxCell>
        <mxCell id="iSu29I9teGT1uEhTYteV-259" value="RC Battery (RTC)" style="rounded=0;whiteSpace=wrap;html=1;fontFamily=Helvetica;fontSize=12;labelBackgroundColor=none;" parent="1" vertex="1">
          <mxGeometry x="480" y="820" width="120" height="60" as="geometry" />
        </mxCell>
        <mxCell id="iSu29I9teGT1uEhTYteV-260" value="UART (Supports Boot)" style="rounded=0;whiteSpace=wrap;html=1;fontFamily=Helvetica;fontSize=12;labelBackgroundColor=none;" parent="1" vertex="1">
          <mxGeometry x="460" y="420" width="120" height="60" as="geometry" />
        </mxCell>
        <mxCell id="iSu29I9teGT1uEhTYteV-261" style="edgeStyle=orthogonalEdgeStyle;shape=connector;rounded=0;orthogonalLoop=1;jettySize=auto;html=1;labelBackgroundColor=none;align=center;verticalAlign=middle;fontFamily=Helvetica;fontSize=12;fontColor=default;endArrow=classic;startSize=8;endSize=8;startArrow=classic;startFill=1;" parent="1" source="iSu29I9teGT1uEhTYteV-20" target="iSu29I9teGT1uEhTYteV-260" edge="1">
          <mxGeometry relative="1" as="geometry" />
        </mxCell>
        <mxCell id="iSu29I9teGT1uEhTYteV-263" value="uSD" style="rounded=0;whiteSpace=wrap;html=1;fontFamily=Helvetica;fontSize=12;labelBackgroundColor=none;" parent="1" vertex="1">
          <mxGeometry x="790" y="810" width="120" height="60" as="geometry" />
        </mxCell>
        <mxCell id="vanw4_a58nJsZAa9QmJa-1" value="Fan Controller" style="rounded=0;whiteSpace=wrap;html=1;fontFamily=Helvetica;fontSize=12;labelBackgroundColor=none;" vertex="1" parent="1">
          <mxGeometry x="1120" y="160" width="120" height="60" as="geometry" />
        </mxCell>
        <mxCell id="vanw4_a58nJsZAa9QmJa-6" style="edgeStyle=orthogonalEdgeStyle;rounded=0;orthogonalLoop=1;jettySize=auto;html=1;" edge="1" parent="1" source="iSu29I9teGT1uEhTYteV-11" target="vanw4_a58nJsZAa9QmJa-7">
          <mxGeometry relative="1" as="geometry">
            <mxPoint x="965" y="370" as="sourcePoint" />
            <mxPoint x="635" y="200" as="targetPoint" />
          </mxGeometry>
        </mxCell>
        <mxCell id="vanw4_a58nJsZAa9QmJa-15" value="PCIe" style="edgeLabel;html=1;align=center;verticalAlign=middle;resizable=0;points=[];" vertex="1" connectable="0" parent="vanw4_a58nJsZAa9QmJa-6">
          <mxGeometry x="0.2926" y="2" relative="1" as="geometry">
            <mxPoint x="67" y="-17" as="offset" />
          </mxGeometry>
        </mxCell>
        <mxCell id="vanw4_a58nJsZAa9QmJa-17" value="Bootswitch" style="rounded=0;whiteSpace=wrap;html=1;fontFamily=Helvetica;fontSize=12;labelBackgroundColor=none;" vertex="1" parent="1">
          <mxGeometry x="510" y="600" width="120" height="60" as="geometry" />
        </mxCell>
      </root>
    </mxGraphModel>
  </diagram>
</mxfile>
